<mxfile host="Electron" modified="2023-05-04T19:09:33.426Z" agent="Mozilla/5.0 (Windows NT 10.0; Win64; x64) AppleWebKit/537.36 (KHTML, like Gecko) draw.io/21.2.1 Chrome/112.0.5615.87 Electron/24.1.2 Safari/537.36" etag="9PWrQpboNFeOwrD9qwVf" version="21.2.1" type="device">
  <diagram name="Page-1" id="1Qh95ByNqFMj4VLGXkBR">
    <mxGraphModel dx="1374" dy="613" grid="1" gridSize="10" guides="1" tooltips="1" connect="1" arrows="1" fold="1" page="1" pageScale="1" pageWidth="850" pageHeight="1100" math="0" shadow="0">
      <root>
        <mxCell id="0" />
        <mxCell id="1" parent="0" />
        <mxCell id="mDf0052SrTb-ewjHU_Fc-1" value="" style="shape=umlLifeline;perimeter=lifelinePerimeter;whiteSpace=wrap;html=1;container=1;dropTarget=0;collapsible=0;recursiveResize=0;outlineConnect=0;portConstraint=eastwest;newEdgeStyle={&quot;edgeStyle&quot;:&quot;elbowEdgeStyle&quot;,&quot;elbow&quot;:&quot;vertical&quot;,&quot;curved&quot;:0,&quot;rounded&quot;:0};participant=umlActor;" parent="1" vertex="1">
          <mxGeometry x="90" y="40" width="20" height="940" as="geometry" />
        </mxCell>
        <mxCell id="mDf0052SrTb-ewjHU_Fc-3" value="option_redeem_points()" style="html=1;verticalAlign=bottom;startArrow=oval;startFill=1;endArrow=block;startSize=8;edgeStyle=elbowEdgeStyle;elbow=vertical;curved=0;rounded=0;" parent="1" source="mDf0052SrTb-ewjHU_Fc-1" target="mDf0052SrTb-ewjHU_Fc-6" edge="1">
          <mxGeometry width="60" relative="1" as="geometry">
            <mxPoint x="170" y="140" as="sourcePoint" />
            <mxPoint x="274.5" y="150" as="targetPoint" />
            <Array as="points">
              <mxPoint x="230" y="150" />
            </Array>
          </mxGeometry>
        </mxCell>
        <mxCell id="mDf0052SrTb-ewjHU_Fc-6" value="" style="shape=umlLifeline;perimeter=lifelinePerimeter;whiteSpace=wrap;html=1;container=1;dropTarget=0;collapsible=0;recursiveResize=0;outlineConnect=0;portConstraint=eastwest;newEdgeStyle={&quot;edgeStyle&quot;:&quot;elbowEdgeStyle&quot;,&quot;elbow&quot;:&quot;vertical&quot;,&quot;curved&quot;:0,&quot;rounded&quot;:0};participant=umlBoundary;" parent="1" vertex="1">
          <mxGeometry x="240" y="40" width="50" height="910" as="geometry" />
        </mxCell>
        <mxCell id="mDf0052SrTb-ewjHU_Fc-9" value="" style="html=1;points=[];perimeter=orthogonalPerimeter;outlineConnect=0;targetShapes=umlLifeline;portConstraint=eastwest;newEdgeStyle={&quot;edgeStyle&quot;:&quot;elbowEdgeStyle&quot;,&quot;elbow&quot;:&quot;vertical&quot;,&quot;curved&quot;:0,&quot;rounded&quot;:0};" parent="mDf0052SrTb-ewjHU_Fc-6" vertex="1">
          <mxGeometry x="20" y="110" width="10" height="70" as="geometry" />
        </mxCell>
        <mxCell id="mDf0052SrTb-ewjHU_Fc-7" value="Εξαργύρωση&lt;br&gt;&amp;nbsp;πόντων" style="text;html=1;align=center;verticalAlign=middle;resizable=0;points=[];autosize=1;strokeColor=none;fillColor=none;" parent="1" vertex="1">
          <mxGeometry x="220" width="90" height="40" as="geometry" />
        </mxCell>
        <mxCell id="mDf0052SrTb-ewjHU_Fc-10" value="" style="shape=umlLifeline;perimeter=lifelinePerimeter;whiteSpace=wrap;html=1;container=1;dropTarget=0;collapsible=0;recursiveResize=0;outlineConnect=0;portConstraint=eastwest;newEdgeStyle={&quot;edgeStyle&quot;:&quot;elbowEdgeStyle&quot;,&quot;elbow&quot;:&quot;vertical&quot;,&quot;curved&quot;:0,&quot;rounded&quot;:0};participant=umlEntity;" parent="1" vertex="1">
          <mxGeometry x="385" y="40" width="40" height="990" as="geometry" />
        </mxCell>
        <mxCell id="mDf0052SrTb-ewjHU_Fc-13" value="" style="html=1;points=[];perimeter=orthogonalPerimeter;outlineConnect=0;targetShapes=umlLifeline;portConstraint=eastwest;newEdgeStyle={&quot;edgeStyle&quot;:&quot;elbowEdgeStyle&quot;,&quot;elbow&quot;:&quot;vertical&quot;,&quot;curved&quot;:0,&quot;rounded&quot;:0};" parent="mDf0052SrTb-ewjHU_Fc-10" vertex="1">
          <mxGeometry x="15" y="180" width="10" height="320" as="geometry" />
        </mxCell>
        <mxCell id="mDf0052SrTb-ewjHU_Fc-11" value="πόντοι" style="text;html=1;align=center;verticalAlign=middle;resizable=0;points=[];autosize=1;strokeColor=none;fillColor=none;" parent="1" vertex="1">
          <mxGeometry x="375" y="5" width="60" height="30" as="geometry" />
        </mxCell>
        <mxCell id="mDf0052SrTb-ewjHU_Fc-12" value="check_points()" style="html=1;verticalAlign=bottom;startArrow=oval;startFill=1;endArrow=block;startSize=8;edgeStyle=elbowEdgeStyle;elbow=vertical;curved=0;rounded=0;" parent="1" source="mDf0052SrTb-ewjHU_Fc-9" target="mDf0052SrTb-ewjHU_Fc-10" edge="1">
          <mxGeometry width="60" relative="1" as="geometry">
            <mxPoint x="310" y="220" as="sourcePoint" />
            <mxPoint x="370" y="220" as="targetPoint" />
            <Array as="points">
              <mxPoint x="360" y="220" />
            </Array>
          </mxGeometry>
        </mxCell>
        <mxCell id="mDf0052SrTb-ewjHU_Fc-14" value="frame" style="shape=umlFrame;whiteSpace=wrap;html=1;pointerEvents=0;fillColor=#f8cecc;strokeColor=#b85450;" parent="1" vertex="1">
          <mxGeometry y="250" width="1030" height="250" as="geometry" />
        </mxCell>
        <mxCell id="mDf0052SrTb-ewjHU_Fc-15" value="not enough points&lt;br&gt;for offer" style="text;html=1;align=center;verticalAlign=middle;resizable=0;points=[];autosize=1;strokeColor=none;fillColor=none;" parent="1" vertex="1">
          <mxGeometry x="-10" y="280" width="120" height="40" as="geometry" />
        </mxCell>
        <mxCell id="mDf0052SrTb-ewjHU_Fc-17" value="" style="shape=umlLifeline;perimeter=lifelinePerimeter;whiteSpace=wrap;html=1;container=1;dropTarget=0;collapsible=0;recursiveResize=0;outlineConnect=0;portConstraint=eastwest;newEdgeStyle={&quot;edgeStyle&quot;:&quot;elbowEdgeStyle&quot;,&quot;elbow&quot;:&quot;vertical&quot;,&quot;curved&quot;:0,&quot;rounded&quot;:0};participant=umlBoundary;" parent="1" vertex="1">
          <mxGeometry x="530" y="40" width="50" height="1030" as="geometry" />
        </mxCell>
        <mxCell id="mDf0052SrTb-ewjHU_Fc-20" value="" style="html=1;points=[];perimeter=orthogonalPerimeter;outlineConnect=0;targetShapes=umlLifeline;portConstraint=eastwest;newEdgeStyle={&quot;edgeStyle&quot;:&quot;elbowEdgeStyle&quot;,&quot;elbow&quot;:&quot;vertical&quot;,&quot;curved&quot;:0,&quot;rounded&quot;:0};" parent="mDf0052SrTb-ewjHU_Fc-17" vertex="1">
          <mxGeometry x="20" y="260" width="10" height="70" as="geometry" />
        </mxCell>
        <mxCell id="mDf0052SrTb-ewjHU_Fc-18" value="Mήνυμα ανεπαρκείς πόντοι δεν &lt;br&gt;επαρκούν για εξαργύρωση" style="text;html=1;align=center;verticalAlign=middle;resizable=0;points=[];autosize=1;strokeColor=none;fillColor=none;" parent="1" vertex="1">
          <mxGeometry x="460" y="5" width="190" height="40" as="geometry" />
        </mxCell>
        <mxCell id="mDf0052SrTb-ewjHU_Fc-19" value="display_notenough_points()" style="html=1;verticalAlign=bottom;startArrow=oval;startFill=1;endArrow=block;startSize=8;edgeStyle=elbowEdgeStyle;elbow=vertical;curved=0;rounded=0;" parent="1" source="mDf0052SrTb-ewjHU_Fc-13" target="mDf0052SrTb-ewjHU_Fc-17" edge="1">
          <mxGeometry width="60" relative="1" as="geometry">
            <mxPoint x="425" y="299.5" as="sourcePoint" />
            <mxPoint x="485" y="299.5" as="targetPoint" />
            <Array as="points">
              <mxPoint x="500" y="300" />
            </Array>
          </mxGeometry>
        </mxCell>
        <mxCell id="mDf0052SrTb-ewjHU_Fc-21" value="" style="shape=umlLifeline;perimeter=lifelinePerimeter;whiteSpace=wrap;html=1;container=1;dropTarget=0;collapsible=0;recursiveResize=0;outlineConnect=0;portConstraint=eastwest;newEdgeStyle={&quot;edgeStyle&quot;:&quot;elbowEdgeStyle&quot;,&quot;elbow&quot;:&quot;vertical&quot;,&quot;curved&quot;:0,&quot;rounded&quot;:0};participant=umlEntity;" parent="1" vertex="1">
          <mxGeometry x="700" y="40" width="40" height="990" as="geometry" />
        </mxCell>
        <mxCell id="mDf0052SrTb-ewjHU_Fc-24" value="" style="html=1;points=[];perimeter=orthogonalPerimeter;outlineConnect=0;targetShapes=umlLifeline;portConstraint=eastwest;newEdgeStyle={&quot;edgeStyle&quot;:&quot;elbowEdgeStyle&quot;,&quot;elbow&quot;:&quot;vertical&quot;,&quot;curved&quot;:0,&quot;rounded&quot;:0};" parent="mDf0052SrTb-ewjHU_Fc-21" vertex="1">
          <mxGeometry x="15" y="330" width="10" height="60" as="geometry" />
        </mxCell>
        <mxCell id="mDf0052SrTb-ewjHU_Fc-51" value="" style="html=1;points=[];perimeter=orthogonalPerimeter;outlineConnect=0;targetShapes=umlLifeline;portConstraint=eastwest;newEdgeStyle={&quot;edgeStyle&quot;:&quot;elbowEdgeStyle&quot;,&quot;elbow&quot;:&quot;vertical&quot;,&quot;curved&quot;:0,&quot;rounded&quot;:0};" parent="mDf0052SrTb-ewjHU_Fc-21" vertex="1">
          <mxGeometry x="15" y="900" width="10" height="80" as="geometry" />
        </mxCell>
        <mxCell id="mDf0052SrTb-ewjHU_Fc-22" value="Παραγγελίες" style="text;html=1;align=center;verticalAlign=middle;resizable=0;points=[];autosize=1;strokeColor=none;fillColor=none;" parent="1" vertex="1">
          <mxGeometry x="790" y="5" width="90" height="30" as="geometry" />
        </mxCell>
        <mxCell id="mDf0052SrTb-ewjHU_Fc-23" value="no_discount()" style="html=1;verticalAlign=bottom;startArrow=oval;startFill=1;endArrow=block;startSize=8;edgeStyle=elbowEdgeStyle;elbow=vertical;curved=0;rounded=0;" parent="1" source="mDf0052SrTb-ewjHU_Fc-17" target="mDf0052SrTb-ewjHU_Fc-21" edge="1">
          <mxGeometry x="0.0364" width="60" relative="1" as="geometry">
            <mxPoint x="590" y="280" as="sourcePoint" />
            <mxPoint x="650" y="280" as="targetPoint" />
            <Array as="points">
              <mxPoint x="680" y="370" />
            </Array>
            <mxPoint as="offset" />
          </mxGeometry>
        </mxCell>
        <mxCell id="mDf0052SrTb-ewjHU_Fc-25" value="καλάθι" style="text;html=1;align=center;verticalAlign=middle;resizable=0;points=[];autosize=1;strokeColor=none;fillColor=none;" parent="1" vertex="1">
          <mxGeometry x="690" y="10" width="60" height="30" as="geometry" />
        </mxCell>
        <mxCell id="mDf0052SrTb-ewjHU_Fc-28" value="" style="shape=umlLifeline;perimeter=lifelinePerimeter;whiteSpace=wrap;html=1;container=1;dropTarget=0;collapsible=0;recursiveResize=0;outlineConnect=0;portConstraint=eastwest;newEdgeStyle={&quot;edgeStyle&quot;:&quot;elbowEdgeStyle&quot;,&quot;elbow&quot;:&quot;vertical&quot;,&quot;curved&quot;:0,&quot;rounded&quot;:0};participant=umlEntity;" parent="1" vertex="1">
          <mxGeometry x="815" y="40" width="40" height="1020" as="geometry" />
        </mxCell>
        <mxCell id="mDf0052SrTb-ewjHU_Fc-30" value="" style="html=1;points=[];perimeter=orthogonalPerimeter;outlineConnect=0;targetShapes=umlLifeline;portConstraint=eastwest;newEdgeStyle={&quot;edgeStyle&quot;:&quot;elbowEdgeStyle&quot;,&quot;elbow&quot;:&quot;vertical&quot;,&quot;curved&quot;:0,&quot;rounded&quot;:0};" parent="mDf0052SrTb-ewjHU_Fc-28" vertex="1">
          <mxGeometry x="15" y="390" width="10" height="60" as="geometry" />
        </mxCell>
        <mxCell id="mDf0052SrTb-ewjHU_Fc-29" value="place_order()" style="html=1;verticalAlign=bottom;startArrow=oval;startFill=1;endArrow=block;startSize=8;edgeStyle=elbowEdgeStyle;elbow=vertical;curved=0;rounded=0;" parent="1" source="mDf0052SrTb-ewjHU_Fc-24" target="mDf0052SrTb-ewjHU_Fc-28" edge="1">
          <mxGeometry x="-0.1781" width="60" relative="1" as="geometry">
            <mxPoint x="750" y="430" as="sourcePoint" />
            <mxPoint x="810" y="430" as="targetPoint" />
            <Array as="points">
              <mxPoint x="810" y="430" />
            </Array>
            <mxPoint as="offset" />
          </mxGeometry>
        </mxCell>
        <mxCell id="mDf0052SrTb-ewjHU_Fc-32" value="enough points&amp;nbsp;&lt;br&gt;for offer" style="text;html=1;align=center;verticalAlign=middle;resizable=0;points=[];autosize=1;strokeColor=none;fillColor=none;" parent="1" vertex="1">
          <mxGeometry y="510" width="100" height="40" as="geometry" />
        </mxCell>
        <mxCell id="mDf0052SrTb-ewjHU_Fc-33" value="" style="shape=umlLifeline;perimeter=lifelinePerimeter;whiteSpace=wrap;html=1;container=1;dropTarget=0;collapsible=0;recursiveResize=0;outlineConnect=0;portConstraint=eastwest;newEdgeStyle={&quot;edgeStyle&quot;:&quot;elbowEdgeStyle&quot;,&quot;elbow&quot;:&quot;vertical&quot;,&quot;curved&quot;:0,&quot;rounded&quot;:0};participant=umlBoundary;" parent="1" vertex="1">
          <mxGeometry x="960" y="50" width="50" height="990" as="geometry" />
        </mxCell>
        <mxCell id="mDf0052SrTb-ewjHU_Fc-36" value="" style="html=1;points=[];perimeter=orthogonalPerimeter;outlineConnect=0;targetShapes=umlLifeline;portConstraint=eastwest;newEdgeStyle={&quot;edgeStyle&quot;:&quot;elbowEdgeStyle&quot;,&quot;elbow&quot;:&quot;vertical&quot;,&quot;curved&quot;:0,&quot;rounded&quot;:0};" parent="mDf0052SrTb-ewjHU_Fc-33" vertex="1">
          <mxGeometry x="20" y="490" width="10" height="290" as="geometry" />
        </mxCell>
        <mxCell id="mDf0052SrTb-ewjHU_Fc-34" value="Επιβεβαίωση εξαργύρωσης&lt;br&gt;&amp;nbsp;πόντων ή όχι" style="text;html=1;align=center;verticalAlign=middle;resizable=0;points=[];autosize=1;strokeColor=none;fillColor=none;" parent="1" vertex="1">
          <mxGeometry x="900" y="10" width="170" height="40" as="geometry" />
        </mxCell>
        <mxCell id="mDf0052SrTb-ewjHU_Fc-35" value="display_enough_point()" style="html=1;verticalAlign=bottom;startArrow=oval;startFill=1;endArrow=block;startSize=8;edgeStyle=elbowEdgeStyle;elbow=vertical;curved=0;rounded=0;" parent="1" source="mDf0052SrTb-ewjHU_Fc-10" target="mDf0052SrTb-ewjHU_Fc-33" edge="1">
          <mxGeometry width="60" relative="1" as="geometry">
            <mxPoint x="330" y="570" as="sourcePoint" />
            <mxPoint x="390" y="570" as="targetPoint" />
            <Array as="points">
              <mxPoint x="460" y="540" />
            </Array>
          </mxGeometry>
        </mxCell>
        <mxCell id="mDf0052SrTb-ewjHU_Fc-37" value="frame" style="shape=umlFrame;whiteSpace=wrap;html=1;pointerEvents=0;fillColor=#f8cecc;strokeColor=#b85450;" parent="1" vertex="1">
          <mxGeometry x="320" y="600" width="700" height="180" as="geometry" />
        </mxCell>
        <mxCell id="mDf0052SrTb-ewjHU_Fc-38" value="select_option_discount()" style="html=1;verticalAlign=bottom;startArrow=oval;startFill=1;endArrow=block;startSize=8;edgeStyle=elbowEdgeStyle;elbow=vertical;curved=0;rounded=0;" parent="1" source="mDf0052SrTb-ewjHU_Fc-1" target="mDf0052SrTb-ewjHU_Fc-36" edge="1">
          <mxGeometry width="60" relative="1" as="geometry">
            <mxPoint x="890" y="580" as="sourcePoint" />
            <mxPoint x="950" y="580" as="targetPoint" />
            <Array as="points">
              <mxPoint x="940" y="580" />
            </Array>
          </mxGeometry>
        </mxCell>
        <mxCell id="mDf0052SrTb-ewjHU_Fc-39" value="no discount" style="text;html=1;align=center;verticalAlign=middle;resizable=0;points=[];autosize=1;strokeColor=none;fillColor=none;" parent="1" vertex="1">
          <mxGeometry x="315" y="630" width="80" height="30" as="geometry" />
        </mxCell>
        <mxCell id="mDf0052SrTb-ewjHU_Fc-40" value="no_discount()" style="html=1;verticalAlign=bottom;endArrow=open;dashed=1;endSize=8;edgeStyle=elbowEdgeStyle;elbow=vertical;curved=0;rounded=0;" parent="1" source="mDf0052SrTb-ewjHU_Fc-36" target="mDf0052SrTb-ewjHU_Fc-21" edge="1">
          <mxGeometry x="-0.2322" relative="1" as="geometry">
            <mxPoint x="950" y="630" as="sourcePoint" />
            <mxPoint x="870" y="630" as="targetPoint" />
            <Array as="points">
              <mxPoint x="950" y="630" />
              <mxPoint x="760" y="640" />
            </Array>
            <mxPoint as="offset" />
          </mxGeometry>
        </mxCell>
        <mxCell id="mDf0052SrTb-ewjHU_Fc-41" value="" style="html=1;points=[];perimeter=orthogonalPerimeter;outlineConnect=0;targetShapes=umlLifeline;portConstraint=eastwest;newEdgeStyle={&quot;edgeStyle&quot;:&quot;elbowEdgeStyle&quot;,&quot;elbow&quot;:&quot;vertical&quot;,&quot;curved&quot;:0,&quot;rounded&quot;:0};" parent="1" vertex="1">
          <mxGeometry x="715" y="630" width="10" height="70" as="geometry" />
        </mxCell>
        <mxCell id="mDf0052SrTb-ewjHU_Fc-42" value="" style="html=1;points=[];perimeter=orthogonalPerimeter;outlineConnect=0;targetShapes=umlLifeline;portConstraint=eastwest;newEdgeStyle={&quot;edgeStyle&quot;:&quot;elbowEdgeStyle&quot;,&quot;elbow&quot;:&quot;vertical&quot;,&quot;curved&quot;:0,&quot;rounded&quot;:0};" parent="1" vertex="1">
          <mxGeometry x="830" y="700" width="10" height="80" as="geometry" />
        </mxCell>
        <mxCell id="mDf0052SrTb-ewjHU_Fc-43" value="place_order()" style="html=1;verticalAlign=bottom;startArrow=oval;startFill=1;endArrow=block;startSize=8;edgeStyle=elbowEdgeStyle;elbow=vertical;curved=0;rounded=0;" parent="1" source="mDf0052SrTb-ewjHU_Fc-41" target="mDf0052SrTb-ewjHU_Fc-28" edge="1">
          <mxGeometry width="60" relative="1" as="geometry">
            <mxPoint x="740" y="699" as="sourcePoint" />
            <mxPoint x="800" y="699" as="targetPoint" />
            <Array as="points">
              <mxPoint x="810" y="700" />
            </Array>
          </mxGeometry>
        </mxCell>
        <mxCell id="mDf0052SrTb-ewjHU_Fc-45" value="yes discount" style="text;html=1;align=center;verticalAlign=middle;resizable=0;points=[];autosize=1;strokeColor=none;fillColor=none;" parent="1" vertex="1">
          <mxGeometry x="310" y="798" width="90" height="30" as="geometry" />
        </mxCell>
        <mxCell id="mDf0052SrTb-ewjHU_Fc-46" value="yes_discount()" style="html=1;verticalAlign=bottom;endArrow=open;dashed=1;endSize=8;edgeStyle=elbowEdgeStyle;elbow=vertical;curved=0;rounded=0;" parent="1" source="mDf0052SrTb-ewjHU_Fc-36" target="mDf0052SrTb-ewjHU_Fc-10" edge="1">
          <mxGeometry x="-0.2007" relative="1" as="geometry">
            <mxPoint x="970" y="828" as="sourcePoint" />
            <mxPoint x="890" y="828" as="targetPoint" />
            <Array as="points">
              <mxPoint x="950" y="830" />
              <mxPoint x="440" y="770" />
            </Array>
            <mxPoint as="offset" />
          </mxGeometry>
        </mxCell>
        <mxCell id="mDf0052SrTb-ewjHU_Fc-48" value="calculate_discount()" style="html=1;align=left;spacingLeft=2;endArrow=block;rounded=0;edgeStyle=orthogonalEdgeStyle;curved=0;rounded=0;" parent="1" edge="1">
          <mxGeometry x="0.0118" relative="1" as="geometry">
            <mxPoint x="400" y="880" as="sourcePoint" />
            <Array as="points">
              <mxPoint x="430" y="910" />
            </Array>
            <mxPoint x="405" y="910" as="targetPoint" />
            <mxPoint as="offset" />
          </mxGeometry>
        </mxCell>
        <mxCell id="mDf0052SrTb-ewjHU_Fc-49" value="" style="html=1;points=[];perimeter=orthogonalPerimeter;outlineConnect=0;targetShapes=umlLifeline;portConstraint=eastwest;newEdgeStyle={&quot;edgeStyle&quot;:&quot;elbowEdgeStyle&quot;,&quot;elbow&quot;:&quot;vertical&quot;,&quot;curved&quot;:0,&quot;rounded&quot;:0};" parent="1" vertex="1">
          <mxGeometry x="400" y="830" width="10" height="110" as="geometry" />
        </mxCell>
        <mxCell id="mDf0052SrTb-ewjHU_Fc-50" value="calculate_order_price()" style="html=1;verticalAlign=bottom;startArrow=oval;startFill=1;endArrow=block;startSize=8;edgeStyle=elbowEdgeStyle;elbow=vertical;curved=0;rounded=0;entryX=0.485;entryY=0.907;entryDx=0;entryDy=0;entryPerimeter=0;" parent="1" source="mDf0052SrTb-ewjHU_Fc-49" target="mDf0052SrTb-ewjHU_Fc-21" edge="1">
          <mxGeometry width="60" relative="1" as="geometry">
            <mxPoint x="570" y="940" as="sourcePoint" />
            <mxPoint x="630" y="940" as="targetPoint" />
          </mxGeometry>
        </mxCell>
        <mxCell id="mDf0052SrTb-ewjHU_Fc-52" value="place_order()" style="html=1;verticalAlign=bottom;startArrow=oval;startFill=1;endArrow=block;startSize=8;edgeStyle=elbowEdgeStyle;elbow=vertical;curved=0;rounded=0;" parent="1" source="mDf0052SrTb-ewjHU_Fc-51" target="mDf0052SrTb-ewjHU_Fc-28" edge="1">
          <mxGeometry width="60" relative="1" as="geometry">
            <mxPoint x="740" y="1020" as="sourcePoint" />
            <mxPoint x="800" y="1020" as="targetPoint" />
            <Array as="points">
              <mxPoint x="800" y="1020" />
            </Array>
          </mxGeometry>
        </mxCell>
        <mxCell id="mDf0052SrTb-ewjHU_Fc-53" value="" style="html=1;points=[];perimeter=orthogonalPerimeter;outlineConnect=0;targetShapes=umlLifeline;portConstraint=eastwest;newEdgeStyle={&quot;edgeStyle&quot;:&quot;elbowEdgeStyle&quot;,&quot;elbow&quot;:&quot;vertical&quot;,&quot;curved&quot;:0,&quot;rounded&quot;:0};" parent="1" vertex="1">
          <mxGeometry x="830" y="1020" width="10" height="50" as="geometry" />
        </mxCell>
      </root>
    </mxGraphModel>
  </diagram>
</mxfile>
